<svg width="84" height="38" viewBox="0 0 84 38" fill="none" xmlns="http://www.w3.org/2000/svg">
<path d="M21.0137 23.2695C21.0137 22.7161 20.8184 22.293 20.4277 22C20.0371 21.7005 19.334 21.388 18.3184 21.0625C17.3027 20.7305 16.4987 20.4049 15.9062 20.0859C14.2917 19.2135 13.4844 18.0384 13.4844 16.5605C13.4844 15.7923 13.6992 15.1087 14.1289 14.5098C14.5651 13.9043 15.1868 13.4323 15.9941 13.0938C16.8079 12.7552 17.7194 12.5859 18.7285 12.5859C19.7441 12.5859 20.6491 12.7715 21.4434 13.1426C22.2376 13.5072 22.8529 14.0247 23.2891 14.6953C23.7318 15.3659 23.9531 16.1276 23.9531 16.9805H21.0234C21.0234 16.3294 20.8184 15.8249 20.4082 15.4668C19.998 15.1022 19.4219 14.9199 18.6797 14.9199C17.9635 14.9199 17.4069 15.0729 17.0098 15.3789C16.6126 15.6784 16.4141 16.0755 16.4141 16.5703C16.4141 17.0326 16.6452 17.4199 17.1074 17.7324C17.5762 18.0449 18.263 18.3379 19.168 18.6113C20.8346 19.1126 22.0488 19.7344 22.8105 20.4766C23.5723 21.2188 23.9531 22.1432 23.9531 23.25C23.9531 24.4805 23.4876 25.4473 22.5566 26.1504C21.6257 26.847 20.3724 27.1953 18.7969 27.1953C17.7031 27.1953 16.707 26.9967 15.8086 26.5996C14.9102 26.196 14.2233 25.6458 13.748 24.9492C13.2793 24.2526 13.0449 23.4453 13.0449 22.5273H15.9844C15.9844 24.0964 16.9219 24.8809 18.7969 24.8809C19.4935 24.8809 20.0371 24.7409 20.4277 24.4609C20.8184 24.1745 21.0137 23.7773 21.0137 23.2695ZM30.3984 21.2969L28.875 22.9375V27H25.9453V12.7812H28.875V19.2266L30.1641 17.459L33.7871 12.7812H37.3906L32.3418 19.0996L37.5371 27H34.0508L30.3984 21.2969ZM47.1953 20.8379H41.5703V24.6465H48.1719V27H38.6406V12.7812H48.1523V15.1543H41.5703V18.543H47.1953V20.8379ZM49.8906 27V12.7812H54.2656C55.5156 12.7812 56.6322 13.0645 57.6152 13.6309C58.6048 14.1908 59.3763 14.9915 59.9297 16.0332C60.4831 17.0684 60.7598 18.2467 60.7598 19.5684V20.2227C60.7598 21.5443 60.4863 22.7194 59.9395 23.748C59.3991 24.7767 58.6341 25.5742 57.6445 26.1406C56.6549 26.707 55.5384 26.9935 54.2949 27H49.8906ZM52.8203 15.1543V24.6465H54.2363C55.3822 24.6465 56.2578 24.2721 56.8633 23.5234C57.4688 22.7747 57.778 21.7038 57.791 20.3105V19.5586C57.791 18.1133 57.4915 17.0195 56.8926 16.2773C56.2936 15.5286 55.418 15.1543 54.2656 15.1543H52.8203Z" fill="#5843BE"/>
<path d="M21.0137 23.2695C21.0137 22.7161 20.8184 22.293 20.4277 22C20.0371 21.7005 19.334 21.388 18.3184 21.0625C17.3027 20.7305 16.4987 20.4049 15.9062 20.0859C14.2917 19.2135 13.4844 18.0384 13.4844 16.5605C13.4844 15.7923 13.6992 15.1087 14.1289 14.5098C14.5651 13.9043 15.1868 13.4323 15.9941 13.0938C16.8079 12.7552 17.7194 12.5859 18.7285 12.5859C19.7441 12.5859 20.6491 12.7715 21.4434 13.1426C22.2376 13.5072 22.8529 14.0247 23.2891 14.6953C23.7318 15.3659 23.9531 16.1276 23.9531 16.9805H21.0234C21.0234 16.3294 20.8184 15.8249 20.4082 15.4668C19.998 15.1022 19.4219 14.9199 18.6797 14.9199C17.9635 14.9199 17.4069 15.0729 17.0098 15.3789C16.6126 15.6784 16.4141 16.0755 16.4141 16.5703C16.4141 17.0326 16.6452 17.4199 17.1074 17.7324C17.5762 18.0449 18.263 18.3379 19.168 18.6113C20.8346 19.1126 22.0488 19.7344 22.8105 20.4766C23.5723 21.2188 23.9531 22.1432 23.9531 23.25C23.9531 24.4805 23.4876 25.4473 22.5566 26.1504C21.6257 26.847 20.3724 27.1953 18.7969 27.1953C17.7031 27.1953 16.707 26.9967 15.8086 26.5996C14.9102 26.196 14.2233 25.6458 13.748 24.9492C13.2793 24.2526 13.0449 23.4453 13.0449 22.5273H15.9844C15.9844 24.0964 16.9219 24.8809 18.7969 24.8809C19.4935 24.8809 20.0371 24.7409 20.4277 24.4609C20.8184 24.1745 21.0137 23.7773 21.0137 23.2695ZM30.3984 21.2969L28.875 22.9375V27H25.9453V12.7812H28.875V19.2266L30.1641 17.459L33.7871 12.7812H37.3906L32.3418 19.0996L37.5371 27H34.0508L30.3984 21.2969ZM47.1953 20.8379H41.5703V24.6465H48.1719V27H38.6406V12.7812H48.1523V15.1543H41.5703V18.543H47.1953V20.8379ZM49.8906 27V12.7812H54.2656C55.5156 12.7812 56.6322 13.0645 57.6152 13.6309C58.6048 14.1908 59.3763 14.9915 59.9297 16.0332C60.4831 17.0684 60.7598 18.2467 60.7598 19.5684V20.2227C60.7598 21.5443 60.4863 22.7194 59.9395 23.748C59.3991 24.7767 58.6341 25.5742 57.6445 26.1406C56.6549 26.707 55.5384 26.9935 54.2949 27H49.8906ZM52.8203 15.1543V24.6465H54.2363C55.3822 24.6465 56.2578 24.2721 56.8633 23.5234C57.4688 22.7747 57.778 21.7038 57.791 20.3105V19.5586C57.791 18.1133 57.4915 17.0195 56.8926 16.2773C56.2936 15.5286 55.418 15.1543 54.2656 15.1543H52.8203Z" fill="#5843BE"/>
<circle cx="64.9332" cy="16.9332" r="1.93324" transform="rotate(-90 64.9332 16.9332)" fill="#5843BE"/>
<circle cx="64.9332" cy="16.9332" r="1.93324" transform="rotate(-90 64.9332 16.9332)" fill="#5843BE"/>
<circle cx="64.9332" cy="23.2854" r="1.93324" transform="rotate(-90 64.9332 23.2854)" fill="#5843BE"/>
<circle cx="64.9332" cy="23.2854" r="1.93324" transform="rotate(-90 64.9332 23.2854)" fill="#5843BE"/>
<circle cx="69.7663" cy="20.1093" r="1.93324" transform="rotate(-90 69.7663 20.1093)" fill="#5843BE"/>
<circle cx="69.7663" cy="20.1093" r="1.93324" transform="rotate(-90 69.7663 20.1093)" fill="#5843BE"/>
</svg>
